<svg width="10" height="14" viewBox="0 0 10 14" fill="none" xmlns="http://www.w3.org/2000/svg">
<path d="M5 0.75C4.73801 0.75 4.53767 0.894 4.2911 1.122L0.813356 4.38C0.618151 4.566 0.5 4.836 0.5 5.118C0.5 5.706 0.921233 6.12 1.35274 6.12C1.56849 6.12 1.78425 6.018 1.97945 5.832L5 3.036L8.01541 5.832C8.21575 6.018 8.42637 6.12 8.64726 6.12C9.07877 6.12 9.5 5.706 9.5 5.118C9.5 4.836 9.38185 4.566 9.18151 4.38L5.7089 1.122C5.46233 0.888 5.26199 0.75 5 0.75ZM5 13.25C5.26199 13.25 5.46233 13.106 5.7089 12.872L9.18151 9.62C9.38185 9.434 9.5 9.164 9.5 8.876C9.5 8.288 9.07877 7.874 8.64726 7.874C8.42637 7.874 8.21575 7.982 8.01541 8.162L5 10.958L1.97945 8.162C1.78425 7.982 1.56849 7.874 1.35274 7.874C0.921233 7.874 0.5 8.288 0.5 8.876C0.5 9.164 0.618151 9.434 0.813356 9.62L4.2911 12.872C4.53767 13.106 4.73801 13.25 5 13.25Z" fill="#8595A6"/>
</svg>
