<svg width="24" height="24" viewBox="0 0 24 24" fill="none" xmlns="http://www.w3.org/2000/svg">
<path d="M12 5.75C11.738 5.75 11.5377 5.894 11.2911 6.122L7.81336 9.38C7.61815 9.566 7.5 9.836 7.5 10.118C7.5 10.706 7.92123 11.12 8.35274 11.12C8.56849 11.12 8.78425 11.018 8.97945 10.832L12 8.036L15.0154 10.832C15.2158 11.018 15.4264 11.12 15.6473 11.12C16.0788 11.12 16.5 10.706 16.5 10.118C16.5 9.836 16.3818 9.566 16.1815 9.38L12.7089 6.122C12.4623 5.888 12.262 5.75 12 5.75Z" fill="#8595A6"/>
<path d="M12 18.25C12.262 18.25 12.4623 18.106 12.7089 17.878L16.1866 14.62C16.3818 14.434 16.5 14.164 16.5 13.882C16.5 13.294 16.0788 12.88 15.6473 12.88C15.4315 12.88 15.2158 12.982 15.0205 13.168L12 15.964L8.98459 13.168C8.78425 12.982 8.57363 12.88 8.35274 12.88C7.92123 12.88 7.5 13.294 7.5 13.882C7.5 14.164 7.61815 14.434 7.81849 14.62L11.2911 17.878C11.5377 18.112 11.738 18.25 12 18.25Z" fill="#084782"/>
</svg>
