<svg width="24" height="24" viewBox="0 0 24 24" fill="none" xmlns="http://www.w3.org/2000/svg">
  <path d="M12 5.75C12.262 5.75 12.4623 5.894 12.7089 6.122L16.1866 9.38C16.3818 9.566 16.5 9.836 16.5 10.118C16.5 10.706 16.0788 11.12 15.6473 11.12C15.4315 11.12 15.2158 11.018 15.0205 10.832L12 8.036L8.98459 10.832C8.78425 11.018 8.57363 11.12 8.35274 11.12C7.92123 11.12 7.5 10.706 7.5 10.118C7.5 9.836 7.61815 9.566 7.81849 9.38L11.2911 6.122C11.5377 5.888 11.738 5.75 12 5.75Z" fill="#084782"/>
  <path d="M12 18.25C11.738 18.25 11.5377 18.106 11.2911 17.878L7.81336 14.62C7.61815 14.434 7.5 14.164 7.5 13.882C7.5 13.294 7.92123 12.88 8.35274 12.88C8.56849 12.88 8.78425 12.982 8.97945 13.168L12 15.964L15.0154 13.168C15.2158 12.982 15.4264 12.88 15.6473 12.88C16.0788 12.88 16.5 13.294 16.5 13.882C16.5 14.164 16.3818 14.434 16.1815 14.62L12.7089 17.878C12.4623 18.112 12.262 18.25 12 18.25Z" fill="#8595A6"/>
</svg>
